<svg xmlns="http://www.w3.org/2000/svg" xmlns:xlink="http://www.w3.org/1999/xlink" width="0" height="0" style="position:absolute">
	
		<symbol id="caret-down" viewBox="0 0 181 90">
			<title>Path 5</title><path d="M.02.67l21.416 12.769 67.75 76.053 71.351-76.053L180.201.669h-69.836l12.918 12.77-34.097 35.17L59.06 13.44 73.994.669z" fill-rule="evenodd"></path>
		</symbol>
	
		<symbol id="facebook" viewBox="0 0 16 28">
			<title>facebook</title><path d="M14.984.187v4.125h-2.453c-1.922 0-2.281.922-2.281 2.25v2.953h4.578l-.609 4.625H10.25v11.859H5.469V14.14H1.485V9.515h3.984V6.109C5.469 2.156 7.891 0 11.422 0c1.687 0 3.141.125 3.563.187z"></path>
		</symbol>
	
		<symbol id="google" viewBox="0 0 24 28">
			<title>google</title><path d="M12 12.281h11.328c.109.609.187 1.203.187 2C23.515 21.125 18.921 26 11.999 26c-6.641 0-12-5.359-12-12s5.359-12 12-12c3.234 0 5.953 1.188 8.047 3.141L16.78 8.282c-.891-.859-2.453-1.859-4.781-1.859-4.094 0-7.438 3.391-7.438 7.578s3.344 7.578 7.438 7.578c4.75 0 6.531-3.406 6.813-5.172h-6.813v-4.125z"></path>
		</symbol>
	
		<symbol id="instagram" viewBox="0 0 24 28">
			<title>instagram</title><path d="M16 14c0-2.203-1.797-4-4-4s-4 1.797-4 4 1.797 4 4 4 4-1.797 4-4zm2.156 0c0 3.406-2.75 6.156-6.156 6.156S5.844 17.406 5.844 14 8.594 7.844 12 7.844s6.156 2.75 6.156 6.156zm1.688-6.406c0 .797-.641 1.437-1.437 1.437S16.97 8.39 16.97 7.594s.641-1.437 1.437-1.437 1.437.641 1.437 1.437zM12 4.156c-1.75 0-5.5-.141-7.078.484-.547.219-.953.484-1.375.906s-.688.828-.906 1.375c-.625 1.578-.484 5.328-.484 7.078s-.141 5.5.484 7.078c.219.547.484.953.906 1.375s.828.688 1.375.906c1.578.625 5.328.484 7.078.484s5.5.141 7.078-.484c.547-.219.953-.484 1.375-.906s.688-.828.906-1.375c.625-1.578.484-5.328.484-7.078s.141-5.5-.484-7.078c-.219-.547-.484-.953-.906-1.375s-.828-.688-1.375-.906C17.5 4.015 13.75 4.156 12 4.156zM24 14c0 1.656.016 3.297-.078 4.953-.094 1.922-.531 3.625-1.937 5.031s-3.109 1.844-5.031 1.937c-1.656.094-3.297.078-4.953.078s-3.297.016-4.953-.078c-1.922-.094-3.625-.531-5.031-1.937S.173 20.875.08 18.953C-.014 17.297.002 15.656.002 14s-.016-3.297.078-4.953c.094-1.922.531-3.625 1.937-5.031s3.109-1.844 5.031-1.937c1.656-.094 3.297-.078 4.953-.078s3.297-.016 4.953.078c1.922.094 3.625.531 5.031 1.937s1.844 3.109 1.937 5.031C24.016 10.703 24 12.344 24 14z"></path>
		</symbol>
	
		<symbol id="rectangles" viewBox="0 0 989 331">
			<title>rectangles</title><g fill="none" fill-rule="evenodd"><path d="M73 96c173.815 67.392 326.281 117.907 457.397 151.545C661.513 281.183 814.381 309 989 331H73V96z" fill="#6B621A"></path><path d="M55 65c173.815 67.392 326.281 117.907 457.397 151.545C643.513 250.183 796.381 278 971 300H55V65z" fill="#827820"></path><path d="M33 24c173.815 67.392 326.281 117.907 457.397 151.545C621.513 209.183 774.381 237 949 259H33V24z" fill="#BBAB26"></path><path d="M0 0c173.815 67.392 326.281 117.907 457.397 151.545C588.513 185.183 741.381 213 916 235H0V0z" fill="#F5E135"></path></g>
		</symbol>
	
		<symbol id="triangles" viewBox="0 0 1268 277">
			<title>Group</title><g fill="none" fill-rule="evenodd"><path fill="#F5E135" d="M90 277V44h1178z"></path><path fill="#BBAB26" d="M55 261V28h1178z"></path><path fill="#827820" d="M26 245V12h1178z"></path><path fill="#696119" d="M0 233V0h1178z"></path></g>
		</symbol>
	
		<symbol id="x" viewBox="0 0 24 24">
			<g fill="none" stroke="currentColor" stroke-width="6" stroke-linecap="square" stroke-miterlimit="10"><path d="M19 5L5 19M19 19L5 5"></path></g>
		</symbol>
	
</svg>
