<?xml version="1.0" encoding="UTF-8"?>
<svg width="203px" height="229px" viewBox="0 0 203 229" version="1.1" xmlns="http://www.w3.org/2000/svg" xmlns:xlink="http://www.w3.org/1999/xlink">
    <!-- Generator: Sketch 48.2 (47327) - http://www.bohemiancoding.com/sketch -->
    <title>Combined Shape</title>
    <desc>Created with Sketch.</desc>
    <defs>
        <path d="M49.5676644,34.2183423 L33.0221284,51.6019442 L51.5340752,89.3492965 L78.8607572,27.7206447 L108.178562,84.9254541 L136.006651,29.2311333 L111.826119,19.9631619 L195.530826,0 L170.975313,18.0972116 L122.070581,111.282361 L169.265874,205.117549 L195.530826,224 L111.826119,205.117549 L136.006651,194.641724 L108.178562,139.335278 L78.8607572,197.421131 L51.5340752,134.177411 L33.0221284,172.753338 L49.5676644,189.077002 L0,177.643131 L19.8100537,163.34551 L40.7796112,113.044359 L19.8100537,60.6000512 L0,46.6147352 L49.5676644,34.2183423 Z M79.6260233,80.9290323 L65.0322581,111.494055 L79.6260233,142.206592 L95.0010729,111.494055 L79.6260233,80.9290323 Z" id="path-1"></path>
        <filter x="-2.5%" y="-2.1%" width="106.1%" height="104.1%" filterUnits="objectBoundingBox" id="filter-2">
            <feMorphology radius="3" operator="erode" in="SourceAlpha" result="shadowSpreadInner1"></feMorphology>
            <feGaussianBlur stdDeviation="0.5" in="shadowSpreadInner1" result="shadowBlurInner1"></feGaussianBlur>
            <feOffset dx="0" dy="1" in="shadowBlurInner1" result="shadowOffsetInner1"></feOffset>
            <feComposite in="shadowOffsetInner1" in2="SourceAlpha" operator="arithmetic" k2="-1" k3="1" result="shadowInnerInner1"></feComposite>
            <feColorMatrix values="0 0 0 0 0.368627451   0 0 0 0 0.364705882   0 0 0 0 0.4  0 0 0 1 0" type="matrix" in="shadowInnerInner1"></feColorMatrix>
        </filter>
    </defs>
    <g id="Page-1" stroke="none" stroke-width="1" fill="none" fill-rule="evenodd">
        <g id="xtremeautoglass-logo" transform="translate(3.000000, 3.000000)">
            <g id="Combined-Shape">
                <use fill="#F5E135" fill-rule="evenodd" xlink:href="#path-1"></use>
                <use fill="black" fill-opacity="1" filter="url(#filter-2)" xlink:href="#path-1"></use>
                <use stroke="#E4E4E4" stroke-width="2" xlink:href="#path-1"></use>
            </g>
        </g>
    </g>
</svg>